<?xml version="1.0" encoding="utf-8"?>
<!-- Generator: Adobe Illustrator 26.3.1, SVG Export Plug-In . SVG Version: 6.00 Build 0)  -->
<svg version="1.1" id="Layer_1" xmlns="http://www.w3.org/2000/svg" xmlns:xlink="http://www.w3.org/1999/xlink" x="0px" y="0px"
	 viewBox="0 0 1113.2 285.9" style="enable-background:new 0 0 1113.2 285.9;" xml:space="preserve">
<style type="text/css">
	
		.st0{clip-path:url(#SVGID_00000133508438236910066510000016289405494081980853_);fill:url(#SVGID_00000043432556769968752650000001514480634777276063_);}
	
		.st1{clip-path:url(#SVGID_00000180353887395776319100000011657183372289835681_);fill:url(#SVGID_00000067209821311422392560000017892566019703485350_);}
	.st2{clip-path:url(#SVGID_00000149363402143482153010000000931210967993783940_);fill:#3F2F8C;}
	
		.st3{clip-path:url(#SVGID_00000043432563979421297120000014767451483344754053_);fill:url(#SVGID_00000076565798881786971450000003280799413158094271_);}
	
		.st4{clip-path:url(#SVGID_00000026863203179679040100000005234069953062702750_);fill:url(#SVGID_00000171694286960455462170000007585574198248596398_);}
	
		.st5{clip-path:url(#SVGID_00000170271551364774703250000017534286601948827278_);fill:url(#SVGID_00000109027373327005326080000018435541161199685554_);}
	
		.st6{clip-path:url(#SVGID_00000055702267170361152330000011702676826218446230_);fill:url(#SVGID_00000116935719557961325090000012785240798393494923_);}
	.st7{fill:#191348;}
	.st8{fill:#3F2F8C;}
	.st9{fill:none;}
	.st10{fill:#A19AC6;}
	.st11{fill:#9F97C4;}
	.st12{fill:#9F97C5;}
	.st13{fill:#A098C5;}
</style>
<g>
	<defs>
		<path id="SVGID_1_" d="M104.3,90.6C104.2,90.6,104.2,90.6,104.3,90.6L104.3,90.6L104.3,90.6z"/>
	</defs>
	<clipPath id="SVGID_00000013180338356295174970000009217945339331069115_">
		<use xlink:href="#SVGID_1_"  style="overflow:visible;"/>
	</clipPath>
	
		<linearGradient id="SVGID_00000119085433238061259210000011327763110323905722_" gradientUnits="userSpaceOnUse" x1="0" y1="155.365" x2="1" y2="155.365" gradientTransform="matrix(97.5725 0 0 -97.5725 6.6862 15249.9736)">
		<stop  offset="0" style="stop-color:#CD4082"/>
		<stop  offset="1" style="stop-color:#3F2F8C"/>
	</linearGradient>
	
		<rect x="104.2" y="90.6" style="clip-path:url(#SVGID_00000013180338356295174970000009217945339331069115_);fill:url(#SVGID_00000119085433238061259210000011327763110323905722_);" width="0.1" height="0.1"/>
</g>
<g>
	<defs>
		<path id="SVGID_00000150803930454123661480000016396805238833223337_" d="M101.8,92.3c-2.7,1.5-5.6,2.3-8.5,2.3v0H44L6.7,123.5
			l0,0c7-5.3,17-4.5,22.9,2.2c6.2,6.9,5.7,17.5-1.2,23.8l0,0l74.8-58.1C102.8,91.7,102.3,92,101.8,92.3"/>
	</defs>
	<clipPath id="SVGID_00000089537454484742420160000003848280298764420540_">
		<use xlink:href="#SVGID_00000150803930454123661480000016396805238833223337_"  style="overflow:visible;"/>
	</clipPath>
	
		<linearGradient id="SVGID_00000055664907212549893090000002726418526152920487_" gradientUnits="userSpaceOnUse" x1="0" y1="155.2558" x2="1" y2="155.2558" gradientTransform="matrix(72.0573 -58.2001 -58.2001 -72.0573 9055.2803 11336.4893)">
		<stop  offset="0" style="stop-color:#CD4082"/>
		<stop  offset="0.1513" style="stop-color:#CD4082"/>
		<stop  offset="1" style="stop-color:#3F2F8C"/>
	</linearGradient>
	
		<polygon style="clip-path:url(#SVGID_00000089537454484742420160000003848280298764420540_);fill:url(#SVGID_00000055664907212549893090000002726418526152920487_);" points="
		-21.7,114.3 65.2,44.1 131.7,126.5 44.8,196.7 	"/>
</g>
<g>
	<defs>
		<rect id="SVGID_00000016063607908431396840000005840899829554215045_" width="1113.2" height="155.4"/>
	</defs>
	<clipPath id="SVGID_00000046312471956893808650000007582721152980238767_">
		<use xlink:href="#SVGID_00000016063607908431396840000005840899829554215045_"  style="overflow:visible;"/>
	</clipPath>
	<path style="clip-path:url(#SVGID_00000046312471956893808650000007582721152980238767_);fill:#3F2F8C;" d="M29.6,125.7
		c-6-6.7-16-7.5-22.9-2.2c-0.3,0.3-0.7,0.5-1,0.8c-7,6.2-7.6,17-1.3,24c6.2,7,17,7.6,24,1.3c0.1-0.1,0.1-0.1,0.2-0.2
		C35.3,143.2,35.8,132.6,29.6,125.7"/>
</g>
<g>
	<defs>
		<path id="SVGID_00000081642992595836231740000002267907631097713793_" d="M127.3,32.9c-2.5,1.5-5.4,2.3-8.5,2.3H58.3L8.6,62.8l0,0
			c2.6-1.5,5.5-2.2,8.4-2.2v0h62.8L127.3,32.9L127.3,32.9z"/>
	</defs>
	<clipPath id="SVGID_00000145780136779452490780000008274701792698884025_">
		<use xlink:href="#SVGID_00000081642992595836231740000002267907631097713793_"  style="overflow:visible;"/>
	</clipPath>
	
		<linearGradient id="SVGID_00000168800273353617223610000007849754786722861466_" gradientUnits="userSpaceOnUse" x1="0" y1="155.365" x2="1" y2="155.365" gradientTransform="matrix(63.743 -45.2668 -45.2668 -63.743 7067.186 9975.1611)">
		<stop  offset="0" style="stop-color:#CD4082"/>
		<stop  offset="1" style="stop-color:#3F2F8C"/>
	</linearGradient>
	
		<polygon style="clip-path:url(#SVGID_00000145780136779452490780000008274701792698884025_);fill:url(#SVGID_00000168800273353617223610000007849754786722861466_);" points="
		-5.5,42.9 87.5,-23.2 141.5,52.8 48.4,118.8 	"/>
</g>
<g>
	<defs>
		<path id="SVGID_00000054232238665660733310000003337614233580623000_" d="M103.3,91.3c0.3-0.2,0.6-0.4,0.9-0.7L103.3,91.3z"/>
	</defs>
	<clipPath id="SVGID_00000044862027810376557960000016786585641674738608_">
		<use xlink:href="#SVGID_00000054232238665660733310000003337614233580623000_"  style="overflow:visible;"/>
	</clipPath>
	
		<linearGradient id="SVGID_00000001623919345870502260000011390417184591046042_" gradientUnits="userSpaceOnUse" x1="0" y1="155.365" x2="1" y2="155.365" gradientTransform="matrix(110.3254 0 0 -110.3254 0 17231.6934)">
		<stop  offset="0" style="stop-color:#3F2F8C"/>
		<stop  offset="0.2099" style="stop-color:#3F2F8C"/>
		<stop  offset="0.3155" style="stop-color:#3E3B93"/>
		<stop  offset="0.5041" style="stop-color:#3C59A6"/>
		<stop  offset="0.7521" style="stop-color:#398BC4"/>
		<stop  offset="1" style="stop-color:#36C3E6"/>
	</linearGradient>
	
		<rect x="103.3" y="90.7" style="clip-path:url(#SVGID_00000044862027810376557960000016786585641674738608_);fill:url(#SVGID_00000001623919345870502260000011390417184591046042_);" width="0.9" height="0.7"/>
</g>
<g>
	<defs>
		<path id="SVGID_00000129205862250662616300000009309209141936100779_" d="M17,60.6L17,60.6c-2.8,0-5.7,0.7-8.4,2.2
			c0,0-0.1,0-0.1,0.1C0.4,67.6-2.4,77.9,2.3,86.1c3.1,5.4,8.8,8.5,14.7,8.5v0h76.4v0c2.9,0,5.8-0.7,8.5-2.3c0.5-0.3,1-0.6,1.5-0.9
			l0.9-0.7c0,0,0.1-0.1,0.1-0.1c6.2-5.2,8-14.2,3.8-21.5c-3.1-5.4-8.8-8.5-14.7-8.5v0H17z"/>
	</defs>
	<clipPath id="SVGID_00000072981987149328335120000015408716323201290686_">
		<use xlink:href="#SVGID_00000129205862250662616300000009309209141936100779_"  style="overflow:visible;"/>
	</clipPath>
	
		<linearGradient id="SVGID_00000101091395691665515600000012331589121502411955_" gradientUnits="userSpaceOnUse" x1="0" y1="155.365" x2="1" y2="155.365" gradientTransform="matrix(171.0701 0 0 -171.0701 -13.3488 26655.8848)">
		<stop  offset="0" style="stop-color:#3F2F8C"/>
		<stop  offset="0.2099" style="stop-color:#3F2F8C"/>
		<stop  offset="0.2864" style="stop-color:#3E3B93"/>
		<stop  offset="0.4231" style="stop-color:#3C59A6"/>
		<stop  offset="0.6029" style="stop-color:#398BC4"/>
		<stop  offset="0.7826" style="stop-color:#36C3E6"/>
		<stop  offset="1" style="stop-color:#36C3E6"/>
	</linearGradient>
	
		<rect x="-2.4" y="60.6" style="clip-path:url(#SVGID_00000072981987149328335120000015408716323201290686_);fill:url(#SVGID_00000101091395691665515600000012331589121502411955_);" width="114.6" height="33.9"/>
</g>
<g>
	<defs>
		<path id="SVGID_00000145016422390562403500000010244328570578524578_" d="M17.1,1.2L17.1,1.2C17,1.2,17,1.2,17.1,1.2
			C7.6,1.2,0,8.8,0,18.2c0,9.4,7.6,17,17,17c0,0,0.1,0,0.1,0v0h101.7c3.1,0,6-0.8,8.5-2.3c5.1-2.9,8.5-8.4,8.5-14.7
			c0-9.4-7.6-17-17-17H17.1z"/>
	</defs>
	<clipPath id="SVGID_00000073718922157982229200000016062137536728814748_">
		<use xlink:href="#SVGID_00000145016422390562403500000010244328570578524578_"  style="overflow:visible;"/>
	</clipPath>
	
		<linearGradient id="SVGID_00000075885152542718837710000006133855543244663429_" gradientUnits="userSpaceOnUse" x1="0" y1="155.365" x2="1" y2="155.365" gradientTransform="matrix(266.9908 0 0 -266.9908 -114.5506 41499.1914)">
		<stop  offset="0" style="stop-color:#3F2F8C"/>
		<stop  offset="0.5253" style="stop-color:#3F2F8C"/>
		<stop  offset="0.5841" style="stop-color:#3E3B93"/>
		<stop  offset="0.6891" style="stop-color:#3C59A6"/>
		<stop  offset="0.8273" style="stop-color:#398BC4"/>
		<stop  offset="0.9654" style="stop-color:#36C3E6"/>
		<stop  offset="1" style="stop-color:#36C3E6"/>
	</linearGradient>
	
		<rect x="0" y="1.2" style="clip-path:url(#SVGID_00000073718922157982229200000016062137536728814748_);fill:url(#SVGID_00000075885152542718837710000006133855543244663429_);" width="135.8" height="33.9"/>
</g>
<path class="st7" d="M238.4,16v59.3h79.2v13.8h-79.2v64.1h-16.2V2.2h105V16H238.4z M422.5,2.2h16.2v151h-16.2V2.2z M581.6,16h-53.8
	V2.2h123.9V16h-53.8v137.2h-16.2V16z"/>
<path class="st8" d="M720.9,77.7c0-44.7,35-77.7,82.5-77.7c47.5,0,82.5,32.8,82.5,77.7s-35,77.7-82.5,77.7
	C755.9,155.4,720.9,122.4,720.9,77.7 M857.2,77.7c0-30.9-23-53.1-53.8-53.1c-30.9,0-53.8,22.2-53.8,53.1s23,53.1,53.8,53.1
	C834.2,130.8,857.2,108.5,857.2,77.7"/>
<polygon class="st8" points="1113.2,2.2 1113.2,153.2 1089.8,153.2 1005.3,50.9 1005.3,153.2 977.1,153.2 977.1,2.2 1000.5,2.2 
	1085,104.4 1085,2.2 "/>
<rect class="st9" width="1113.2" height="155.4"/>
<g>
	<path class="st10" d="M1025.5,225c0,19.9,0,39.8,0,59.8c-4.2,0-8.4,0-12.5,0c0-0.3,0-0.7,0-1c1.3-1.2,2.9-1.3,4.5-1.5
		c5.3-0.6,5.5-0.7,5.5-6.2c0.1-14.4,0-28.9,0-43.3c0-2.1-0.1-4.2,0.5-6.2C1023.9,225.7,1024.3,224.8,1025.5,225z"/>
	<path class="st11" d="M800,284.7c0.1-0.4,0.2-0.8,0.3-1.2c1.4-1.3,3.2-1.3,5-1.3c9.7-0.1,19.5-0.1,29.2,0c1.8,0,3.5,0.1,4.9,1.4
		c0,0.4,0.1,0.7,0.1,1.1C826.3,284.7,813.2,284.7,800,284.7z"/>
	<path class="st12" d="M986.7,283.6c0.1,0.4,0.2,0.8,0.3,1.2c-12.2,0-24.4,0-36.6,0c0.1-0.4,0.2-0.8,0.3-1.2
		c1.3-1.2,2.9-1.3,4.5-1.3c9-0.1,18.1-0.1,27.1,0C983.8,282.3,985.4,282.4,986.7,283.6z"/>
	<path class="st13" d="M912.7,284.7c0.1-0.4,0.1-0.7,0.2-1.1c3.9-2.3,8.4-0.6,12.4-1.8c1.1,0.7,1,1.9,0.9,3
		C921.7,284.7,917.2,284.7,912.7,284.7z"/>
	<path class="st13" d="M875,283.6c0,0.4,0.1,0.7,0.1,1.1c-4.5,0-9,0-13.5,0c0.3-0.7,0.5-1.4,0.8-2C866.7,282.4,871,281.4,875,283.6z
		"/>
	<path class="st13" d="M732.4,283.7c0,0.4,0.1,0.7,0.1,1.1c-4.2,0-8.4,0-12.5,0c0.1-0.4,0.2-0.8,0.3-1.2
		C724.3,281.7,728.4,281.6,732.4,283.7z"/>
	<path class="st10" d="M758.5,284.7c0.1-0.4,0.2-0.8,0.3-1.2c4-1.9,8-1.9,12,0c0.1,0.4,0.2,0.8,0.3,1.2
		C766.9,284.7,762.7,284.7,758.5,284.7z"/>
	<path class="st10" d="M1074.4,283.6c0.1,0.4,0.2,0.8,0.3,1.2c-4.2,0-8.4,0-12.5,0c0.1-0.4,0.2-0.8,0.3-1.2
		C1066.4,281.7,1070.4,281.7,1074.4,283.6z"/>
	<path class="st13" d="M1100.7,284.7c0-0.4,0.1-0.7,0.1-1.1c4-2,8.1-2,12.1-0.1c0.1,0.4,0.2,0.8,0.3,1.2
		C1109,284.7,1104.8,284.7,1100.7,284.7z"/>
	<g>
		<path class="st8" d="M770.9,221.5c0-8.5,0-8.3-8.3-8.4c-3.3,0-4,1.1-4,4.1c0.2,7.4,0,14.8,0.1,22.1c0,2.4-0.5,3.5-3.2,3.4
			c-6.6-0.2-13.2-0.2-19.7,0c-2.9,0.1-3.4-1.1-3.4-3.7c0.1-5.8,0-11.6,0-17.3c0-8.9,0-8.8-8.9-8.7c-2.7,0-3.6,0.7-3.6,3.5
			c0.1,22.3,0.1,44.6,0.2,66.9c3.8,0,7.7,0.1,11.5,0.1c-0.1-0.2-0.2-0.4-0.3-0.6c-1.1-8.3-0.5-16.7-0.3-25c0.1-3.1,2-4.6,5-4.7
			c6.3-0.2,12.5-0.2,18.8,0c3,0.1,4.9,1.6,5,4.7c0.2,8.3,0.7,16.7-0.3,25c-0.1,0.2-0.2,0.3-0.2,0.5c3.8,0,7.7,0,11.5,0
			C770.8,262.9,770.9,242.2,770.9,221.5z"/>
		<path class="st8" d="M759.9,258.1c-0.1-3.1-2-4.6-5-4.7c-6.3-0.2-12.5-0.2-18.8,0c-3,0.1-4.9,1.6-5,4.7c-0.2,8.3-0.7,16.7,0.3,25
			c0.1,0.2,0.2,0.4,0.3,0.6c0.2,0,0.4,0,0.6,0c0-8.5,0.2-17,0.1-25.5c0-2.9,0.6-4,3.7-3.8c6.1,0.2,12.2,0.2,18.3,0
			c3.3-0.1,4.4,0.8,4.3,4.2c-0.2,8.3,0,16.7,0,25c0.2,0,0.3,0,0.5,0c0.1-0.2,0.2-0.3,0.2-0.5C760.6,274.8,760.1,266.4,759.9,258.1z"
			/>
	</g>
	<path class="st8" d="M1112.9,283.6c-4,0-8.1,0.1-12.1,0.1c0-8.5-0.2-17-0.1-25.5c0-2.9-0.6-4-3.7-3.8c-6.1,0.2-12.2,0.2-18.3,0
		c-3.3-0.1-4.4,0.8-4.3,4.2c0.2,8.3,0,16.7,0,25c-4,0-8,0-12,0c0-22.3,0-44.6-0.2-66.9c0-2.8,0.9-3.5,3.6-3.5
		c8.7-0.1,8.7-0.2,8.7,8.4c0,5.8,0.1,11.6-0.1,17.3c-0.1,2.8,0.5,4,3.7,3.9c6.2-0.2,12.5-0.3,18.8,0c3.4,0.2,3.9-1.2,3.9-4.2
		c-0.2-7.2,0.1-14.4-0.1-21.7c-0.1-2.8,0.5-3.9,3.6-3.9c8.8,0,8.8-0.1,8.8,8.8C1113,242.5,1113,263,1112.9,283.6z"/>
	<path class="st8" d="M839.4,283.7c-13,0-26.1-0.1-39.1-0.1c0-22.3,0-44.6-0.2-67c0-2.8,0.9-3.5,3.6-3.5c10.7,0.1,21.5,0.2,32.2,0
		c3.2-0.1,3.7,1.1,3.6,3.9c0,7.8,0.1,7.8-7.9,7.8c-5.3,0-10.6,0.1-15.9,0c-2.4-0.1-3.6,0.4-3.3,3.1c0.4,4.8-1.9,10.9,0.9,14
		c2.6,2.9,8.8,0.7,13.4,0.9c3,0.1,6.1,0.2,9.1,0c3.1-0.3,4.1,0.9,3.7,3.8c-0.2,1.3-0.2,2.6,0,3.8c0.4,3-0.8,3.8-3.7,3.7
		c-6.4-0.2-12.8,0.1-19.2-0.1c-3-0.1-4.4,0.6-4.1,3.9c0.3,3.7,0.3,7.4,0,11.1c-0.3,3.6,1.2,4.3,4.4,4.1c6.1-0.2,12.2,0.2,18.3-0.2
		c3.6-0.2,4.9,0.9,4.4,4.5C839.3,279.5,839.4,281.6,839.4,283.7z"/>
	<path class="st8" d="M986.7,283.6c-12,0-24.1,0-36.1,0c0-22.3-0.1-44.6-0.2-67c0-2.3,0.4-3.4,3.1-3.5c9.3-0.4,9.3-0.5,9.3,8.7
		c0,15.7,0.1,31.5-0.1,47.2c0,3.2,0.9,4.1,4,4c5.1-0.2,10.3,0.2,15.4-0.2c4-0.3,5.1,1.3,4.6,4.9
		C986.6,279.7,986.7,281.6,986.7,283.6z"/>
	<path class="st8" d="M1025.5,225c-1.8,1.3-0.9,3.2-0.9,4.9c-0.1,16.1-0.2,32.3,0,48.4c0.1,4.2-0.8,6.3-5.4,5.6
		c-2-0.3-4.1-0.1-6.2-0.1c-0.1-18-0.2-36-0.1-53.9c0-3.9-0.8-5.7-4.9-5c-0.6,0.1-1.3,0-1.9,0c-6.6,0-6.4,0-6.7-6.6
		c-0.2-3.9,0.7-5.2,4.9-5.1c9.8,0.3,19.6,0.2,29.4,0c3.3-0.1,4.8,0.5,4.7,4.3c-0.3,7.3,0,7.3-7.5,7.3
		C1029.1,224.8,1027.3,224.9,1025.5,225z"/>
	<path class="st8" d="M900.8,216.6c-1.7-4.6-4.8-3.1-7.7-3.4c-2.8-0.3-4.5,0.3-5.7,3.5c-8.1,22.1-16.6,44-24.9,66.1
		c4,2.3,8.4,0.6,12.6,1c2.1-5.5,4.2-11.1,6.2-16.6c0.7-2,1.7-3.1,4.1-3c5.8,0.2,11.5,0.2,17.3,0c2.4-0.1,3.4,0.9,4.2,3
		c2,5.6,4.1,11.1,6.1,16.7c3.1,0.1,6.3,0.1,9.4,0.2c1.5,0,2.9,0.1,3-2C917.1,260.1,908.7,238.4,900.8,216.6z M894.6,252.7
		c-8,0-8,0-5.3-7.9c1.5-4.4,3-8.7,4.8-14.1c2.6,7.7,4.9,14.4,7.4,22C898.7,252.7,896.7,252.7,894.6,252.7z"/>
</g>
</svg>
